<?xml version="1.0" encoding="UTF-8"?>
<svg id="Layer_1" xmlns="http://www.w3.org/2000/svg" version="1.1" viewBox="0 0 311.8 595.3">
  <!-- Generator: Adobe Illustrator 29.2.1, SVG Export Plug-In . SVG Version: 2.1.0 Build 116)  -->
  <defs>
    <style>
      .st0 {
        fill: #cbb49b;
      }

      .st1 {
        fill: #e8d0b6;
      }

      .st2 {
        fill: #f3e5d9;
      }

      .st3 {
        fill: #49413a;
      }

      .st4 {
        fill: #a58f83;
      }
    </style>
  </defs>
  <g id="c8HEfI.tif">
    <g>
      <path class="st3" d="M176.4,445.3c3.2.1,10.8,2,16.6,2.4,23.2,1.4,64.5,4.1,85.6,11.9.2,0-.6,3.9.3,4.4,6.9,3.1,14.6,1.7,18.7,9.9-1.4,13.2-12.5,20.4-23.8,26.2-4.2-10.5-5.4-9.5-14.3-14.3-32.7-17.9-84.7-14.8-121.2-14.3-5.9,0-14.5-1.9-19,2.4-2.4.1-4.8-.2-7.1,0-18.9,1.6-35.5,5.2-52.3,14.3-17.6,9.6-17.8,19.5-33.3,26.2-.4-2.2.5-5.2,0-7.2v-2.4c-.7-1.6-19.7-17.2-23.8-19.1v-21.5c3.6-4.5,10.8-7,14.3-9.5l10.4,7.3c24.1-5.8,48-12.2,72.7-14.4,2.3-.2,4.8.2,7.1,0,1.6-.1,3.2.1,4.8,0,8.6-.6,17.5.2,26.1,0,7.5-.2,19-2.4,23.8-2.4,4.7,0,9.5-.2,14.3,0ZM155,457.2c-19.1.3-38.2,2-57,4.8s-21.7,1.7-28.5,7.1c10.4.2,20.6-1.6,30.9-2.4,17.7-1.3,37.1-4.5,54.7-4.8l35.7,2.4c18.9,1.4,46.1,3.3,64.2,7.2,3.4.7,12.1,3.5,16.6,4.8.6.2,9.6,10.9,7.1,1.2-.5-1.9-5.1-2.5-7.1-3.6-3.2-1.7-8.3-3.6-11.9-4.8-20.9-6.8-51.6-10.8-73.7-11.9-7.8-4.1-23.4-4-30.9,0Z"/>
      <path class="st2" d="M5.3,247.3h-2.4v-19.1h2.4c-.9,5.7.7,13.1,0,19.1Z"/>
      <path class="st3" d="M221.6,242.5c4.7,3.1,11.5,11.5,14.3,16.7-9.5,4.5-5.7,10.4-7.1,16.7-1,4.4-5.8,15.4-2.4,19.1,8.3,8.9,11.9,1.8,16.6,21.5h-9.5c-14-30.8-22.5-3-13.8,15,3.1,6.3,8.8,6,9,6.5.5,1-9.7,10.2-11.3,18.4-2.5,12.4.5,28.2-.6,41.2l-7.1-2.4c-1.9,4.8,4.4,6.1,4.7,7.1s-.4,3.4,0,4.8c-5.3,20.7-8.7,10.7-16.6,14.3,4.8-33.5-6.5-86.9,0-118,2.7-12.9,14.8-9.4,16.6-10.8s-17.4-14-14.1-34.4c2.1-13.2,9.9-15.2,21.3-15.7ZM207.4,390.4c9-5.9,7-19.5,7.1-28.6-6.8,6.3-7,20-7.1,28.6Z"/>
      <path class="st3" d="M45.7,180.5c8.2-.9,19.7-1.1,16.7,10.3-1,4-45.5,13.2-33.4,25.5,2.8,2.9,66.7-15.7,78.4-16.7,39.6-3.5,123.1.1,159.2,16.7,4.6,2.1,15.7,15.7,23.8,16.7-2.1,28.8-11.5,21.5-26.1,40.6-2.5,3.3-1.6,8.7-7.1,7.2-.2-6,.7-33.2-2.6-35.5-1.4-.9-28.8-2.8-33-2.7-29.2-19.1-47.8-11.3-78.4-9.5-6.4.4-11.1,1.8-16.6,2.4-11,1.2-25.2-1.7-35.7,0-2.4.4-3.6,2-4.8,2.4-30.2,10.2-11.6,17.8-12.1,34.2-.3,12.1-12.5,24.2-11.7,25.4s4.3-1.5,9.5,7.2c-8.8,4.4-5.4,19.9,2.4,23.9.2,3.6,2.1,8.5,2.4,14.3-17.5-.2-11.8,31.1-11.9,42.9-17.3,5.2,1.7,43.6,0,45.3s-5.8-2.7-6.9-2.1-1.5,4-2.6,4.5l-2.4-112.1-7.1-4.8c1.4-2.9-.9-9.1,4.8-14.3s7.8,3.3,7-3.4-9.7-19.7-16.5-20.5c-5.8-.7-8.9,5.4-11.9-2.4l-23.8-28.6c.7-6-.9-13.4,0-19.1,2.9-17.7,15.6-18.1,23.8-27.4,7.1-8,6.8-10.9,16.6-20.3ZM107.5,213.9c-4.8.6-9.5,1.5-14.3,2.4-3.7.7-23,3.9-23.8,4.8-6.7,8.1,31.1-2.2,33.3-2.4,3.9-.4,8,.3,11.9,0s4.8.2,7.1,0c3.8-.2,9.4,1.6,11.9-2.4h40.4c.3,1,1.4,2.3,2.4,2.4,3.9.2,8-.4,11.9,0s1.6,0,2.4,0c8.4.9,21,.9,28.5,2.4,14.3,2.8,30.4,11.9,45.1,14.3,1.2-6.3-1.4-4.2-4.7-5.9-10.5-5.4-21.9-8.1-33.3-10.8-6.8-1.6-27.9-6.6-33.3-7.2s-3.2.1-4.8,0c-24.3-1.9-56.5-.6-80.8,2.4Z"/>
      <path class="st1" d="M259.6,485.9c1.1,18.2-6.1,32.9,14.3,16.7.6,2.2,1.9,3.1,2.4,7.2-3.7,1.7-3.7,10.3,0,11.9.2,2.4-2.4,5.9-2.4,7.2-15.3,5.8-9.8-2.2-19.7-7.7-2.5-1.4-25.2-9-26.7-9h-39.2c-.5,0,.4,8,0,9.5-4.8-5.4-4.8-5.7-13.1-4.9-12.9,1.2-54.4,17.1-66.9,23.6-5.4,2.8-14.5,14.4-18.6,14.7-7.5.7-1.5-10-3.5-11.9-11-10.9-46.2,25.7-49.9,35.8-9.6,1.1-6.4-.7-7.1-7.2l33.2-51.4c1.9-1.8,19-13,20.3-13.1,8.2-.7-1.4,11.7,8.3,9.6-4.2-28.4,29-7.3,21.4-42.9,2.3-.2,4.8.1,7.1,0,5.9-.3,14.4,2.1,19-2.4,36.5-.4,88.5-3.6,121.2,14.3Z"/>
      <path class="st4" d="M152.7,97l3,25.6,90.8,53.1c10.7,5,13.3,20.4,19,26.3,12.9,13.2,27.3.9,25.1,30.9-8.1-1-19.2-14.6-23.8-16.7,4.9-6.9-15.4-17.8-19.7-19.6-10.8-4.4-29.1-4.6-36.8-8.4-7.2-3.6-7.2-14.9-14.2-17-6.1-1.8-10.6,2-14.9,2-1.2-13.7-37.8-6.1-40-2-1.9,3.7.9,12-.6,13.8-2.2,2.6-15.9-.1-17.4.2-2.7.6-2.3,6.1-5.2,6.8s-14.4-5.7-20.1,3.9l9.5,3.5c-11.7,1-75.6,19.5-78.4,16.7-12.2-12.3,32.3-21.5,33.4-25.5,3-11.4-8.5-11.1-16.7-10.3,18.4-17.6,88.1-50.2,95-60.9s.5-14.6,0-22.6c3.1,1.8,8.9,1.1,11.9,0Z"/>
      <path class="st0" d="M228.7,426.2c.6,0,3.8,4.4,4.8,0,.6.3,1.6-.2,2.4,0,3,.9,9.1,2.1,9.5,2.4,3.1,1.8,2.9,7.9,5.9,9.5,7.9,4.3,4.9-6.4,7.2-7.2,5-1.6,3.1,4.8,5.9,7.2,6.6,5.6,10.1,5.6,16.6,9.5l-2.4,11.9c-21-7.9-62.3-10.6-85.6-11.9v-16.7c-5.6,14.1,2.9,16-16.6,14.3-4.7-.2-9.5,0-14.3,0l-23.8,2.4c-8.6.2-17.5-.6-26.1,0h-4.8c-2.3.2-4.8-.2-7.1,0-1.2-11.7-.5-13.6-11.9-16.7,1.2-3.2,17.7-9.4,19-9.5,6.9-1,16.3.3,23.8,0,9.2-.3,27.6-1.5,35.7,0,6.6,1.3,11.3,9.6,25,7.2,6.7-1.2,5.5-7,5.9-7.2,8-3.6,11.4,6.4,16.6-14.3,4.5,16.4-2,16.3,14.3,19.1Z"/>
      <path class="st1" d="M221.6,242.5c4.2-.2,31.6,1.7,33,2.7,3.4,2.3,2.4,29.5,2.6,35.5.2,5.8,0,12.1,0,17.9v106.2c5-19.7,1.6-40.8,2.4-60.9.2-5.9-1.7-7.8,4.8-3.5-.3,32.6.6,65.2,0,97.8-2.8-2.4-.9-8.8-5.9-7.2-2.3.7.8,11.5-7.2,7.2-3-1.7-2.9-7.7-5.9-9.5-3.4-34.5,5.6-78.9-2.4-112.1-4.7-19.7-8.3-12.6-16.6-21.5,11.9-4.9,10.2-8.6,11.9-19.1.4-2.2,2.4-3.6,1.9-7.8-.5-4.3-2.7-5.9-4.3-8.9-2.7-5.2-9.5-13.6-14.3-16.7ZM260.8,423.8v2.4l1.2-1.2-1.2-1.2Z"/>
      <path class="st1" d="M221.6,242.5c-11.3.5-19.1,2.4-21.3,15.7-3.3,20.4,15.6,33.2,14.1,34.4s-13.8-2-16.6,10.8c-6.6,31.1,4.7,84.5,0,118-.4.2.8,6-5.9,7.2-13.7,2.4-18.4-5.9-25-7.2,1.1-32.7,8.5-89.1-2.4-119.3-3.6-10.1-10.5-15-21.4-14.3,21.3-11.3,25.3-45.1-2.4-50.1l2.4-4.8c30.6-1.8,49.2-9.6,78.4,9.5Z"/>
      <path class="st0" d="M112.3,473.9c7.6,35.6-25.6,14.6-21.4,42.9-9.8,2.1-.1-10.3-8.3-9.6-1.3.1-18.4,11.3-20.3,13.1l-33.2,51.4c-.9-7.4.5-16.2,0-23.9,9.4-3.4,7.5-20.4,13.2-28.6s6.6-2.2,7.3-3.3c4.2-6.6,14-19.3,10.4-27.8,16.8-9.1,33.4-12.7,52.3-14.3Z"/>
      <path class="st4" d="M60,488.2c3.7,8.5-6.2,21.2-10.4,27.8-.7,1.1-5.7,1-7.3,3.3-5.7,8.2-3.8,25.1-13.2,28.6-.7-10.1-.7-23.8-2.4-33.4,15.5-6.7,15.7-16.7,33.3-26.2Z"/>
      <path class="st0" d="M264.4,340.3c-6.4-4.2-4.5-2.3-4.8,3.5-.8,20.1,2.6,41.2-2.4,60.9v-106.2c0-5.8.2-12.1,0-17.9,5.6,1.5,4.6-3.9,7.1-7.2,3.4,22.5.2,44.2,0,66.8Z"/>
      <path class="st0" d="M140.8,66.6c1.1-5.3,2.4-6.1,4-10.1s-2.4-5.4-1.6-5.9,13.8-.4,14.3,0c2.1,1.6-.2,15.5,0,17.8,3.1-5.1-11-2.6-16.6-1.8Z"/>
      <path class="st4" d="M297.7,473.9c-4.1-8.3-11.8-6.8-18.7-9.9-.9-.4-.1-4.3-.3-4.4l2.4-11.9c13.4,8.1,19,4.6,16.6,26.2Z"/>
      <path class="st0" d="M273.9,500.2c.3.6-.2,1.6,0,2.4-20.4,16.2-13.2,1.5-14.3-16.7,8.9,4.9,10,3.8,14.3,14.3Z"/>
      <path class="st3" d="M143.2,82.7c.8.8,1.8,1.6,2.4,2.4,4.5,6.4-.2,6.2,11.9,7.2-2.1,4.4,1.6,2.4-4.8,4.8-3,1.1-8.8,1.8-11.9,0-.3-6.5,0-9.2,0-14.3h2.4Z"/>
      <path class="st0" d="M159.8,82.7l-14.3,2.4c-.6-.8-1.6-1.6-2.4-2.4s-1.5-1.6-2.4-2.4c0-.8,0-1.6,0-2.4,2.8-2.4,6.6-1.6,9.5-2.4s5.2,0,7.1-4.8c.1,4,2.5,9.5,2.4,11.9Z"/>
      <path class="st3" d="M140.8,66c5.7-1,19.7-4.4,16.6,2.4,0,.8,0,1.6,0,2.4-2,4.7-3.5,3.8-7.1,4.8,1.4-8.6-4-1.6-9.5-4.8.2-1.5-.2-3.3,0-4.8Z"/>
      <path class="st4" d="M159.8,82.7c-.4,5.1-.2,5-2.4,9.5-12.1-1-7.3-.7-11.9-7.2l14.3-2.4Z"/>
      <path class="st4" d="M140.8,70.8c5.5,3.2,10.9-3.8,9.5,4.8-2.9.8-6.7,0-9.5,2.4,0-2.4-.2-4.8,0-7.2Z"/>
      <path class="st2" d="M276.3,521.6c-3.7-1.7-3.7-10.3,0-11.9.4,3.8-.3,8,0,11.9Z"/>
      <path class="st4" d="M143.2,82.7h-2.4c0-.8,0-1.6,0-2.4.8.8,1.6,1.6,2.4,2.4Z"/>
      <path class="st4" d="M26.7,507.3c-.2-.8.3-1.8,0-2.4v2.4Z"/>
      <path class="st4" d="M86.1,237.8l2.4,193.2c11.3,3.1,10.7,5,11.9,16.7-24.8,2.2-48.7,8.7-72.7,14.4l-10.4-7.3c3-2.2,9.2-5.2,10.6-7.3,13.1-19.2-3.5-140.8,1.3-171.6,2.9,7.8,6,1.7,11.9,2.4-.8,8.8,1.8,18.7,9.5,23.9-5.7,5.3-3.4,11.5-4.8,14.3-3.3,6.9-5.3,3.2-7.1,16.7s.2,9.7,0,14.3,0,3.2,0,4.8c-1.1,27.7.8,55.8,0,83.5l2.4,2.4c2.3.5,4.1-2.3,4.8-2.4,4.6-.8,4.6-.3,9.5-2.4,1.1-.5,1.9-4.1,2.6-4.5,1.1-.6,5.9,3,6.9,2.1,1.7-1.7-17.3-40.1,0-45.3,0,6.4-.2,40.6,2.4,42.9,2.6,2.4,9.7-2.1,11.2-6.3s-1.2-68.8-1.7-79.6c-.3-5.8-2.2-10.7-2.4-14.3-.5-8.9,6.6-8.8-2.4-23.9-5.2-8.7-9.1-6.6-9.5-7.2-.8-1.2,11.4-13.3,11.7-25.4.5-16.5-18.1-24,12.1-34.2Z"/>
      <path class="st1" d="M155,457.2c10.2-.2,20.8-.5,30.9,0,22,1.1,52.8,5.1,73.7,11.9l-4.8,2.4c-18.1-3.9-45.3-5.8-64.2-7.2-12.1-.9-23.2-2.6-35.7-2.4s-36.9,3.4-54.7,4.8l-2.4-4.8c18.8-2.8,38-4.4,57-4.8Z"/>
      <path class="st4" d="M98,462l2.4,4.8c-10.3.8-20.5,2.5-30.9,2.4,6.8-5.4,19.9-5.8,28.5-7.1Z"/>
      <path class="st4" d="M190.7,464.4l-35.7-2.4c12.5-.2,23.5,1.5,35.7,2.4Z"/>
      <path class="st4" d="M193.1,447.7c-5.9-.3-13.4-2.3-16.6-2.4,19.6,1.7,11-.2,16.6-14.3v16.7Z"/>
      <path class="st4" d="M185.9,457.2c-10.1-.5-20.7-.2-30.9,0,7.5-4,23.1-4.1,30.9,0Z"/>
      <path class="st0" d="M271.5,473.9v2.4c-4.5-1.3-13.2-4-16.6-4.8l4.8-2.4c3.5,1.2,8.7,3,11.9,4.8Z"/>
      <path class="st4" d="M162.2,445.3c-4.8,0-16.3,2.2-23.8,2.4l23.8-2.4Z"/>
      <path class="st0" d="M138.4,471.5c-4.6,4.5-13.1,2.1-19,2.4,4.5-4.3,13.1-2.3,19-2.4Z"/>
      <path class="st4" d="M271.5,473.9c2,1.1,6.7,1.7,7.1,3.6,2.5,9.7-6.5-1-7.1-1.2v-2.4Z"/>
      <path class="st4" d="M112.3,447.7c-1.6.1-3.2-.1-4.8,0h4.8Z"/>
      <path class="st1" d="M90.9,235.4v28.6s19-11.9,19-11.9c-4.1,15.9,2.2,29,16.6,35.7-8.8,1.3-14.4,4.3-19,12-9,15-4.6,38.4,0,54.9v4.8c-1.4,1.1,0,2,0,2.4,0,2.4,0,4.8,0,7.2s0,1.6,0,2.4c0,5.6,0,11.1,0,16.7,0,2.5,0,4.9,0,7.2s0,6.4,0,9.5c0,3-2,.9,0,9.5.5,2-.3,4.9,0,7.2-1.3.2-17.8,6.3-19,9.5l-2.4-193.2c1.2-.4,2.3-2,4.8-2.4Z"/>
      <path class="st0" d="M181.2,173.4c-5.8,0-19.5-4.7-21.3,1.4-4,13.6,22.1,7.5,21.3-1.4,4.3,0,8.9-3.8,14.9-2,7,2.1,7,13.4,14.2,17,7.7,3.8,26,4,36.8,8.4s24.6,12.7,19.7,19.6c-36.1-16.6-119.6-20.2-159.2-16.7l-9.5-3.5c5.7-9.7,16.1-3,20.1-3.9s2.5-6.1,5.2-6.8,15.2,2.4,17.4-.2-1.4-10.1.6-13.8c2.2-4.2,38.7-11.7,40,2Z"/>
      <path class="st0" d="M45.7,316.5l7.1,4.8,2.4,112.1c-5,2.1-4.9,1.5-9.5,2.4-5-24.6-1.5-50.3-2.4-75.3-.2-4.6,2.4-9.6-4.8-8.2,0-1.6,0-3.2,0-4.8,7,3.4,7.8-16.9,0-14.3,1.8-13.5,3.9-9.8,7.1-16.7Z"/>
      <path class="st1" d="M188.3,211.5h4.8c5.4.5,26.4,5.5,33.3,7.2l-7.1,2.4c-7.5-1.5-20.1-1.5-28.5-2.4h-2.4c-3.9-.4-8,.2-11.9,0l-2.4-2.4h-40.4l-11.9,2.4c-2.4.2-4.8-.2-7.1,0l-7.1-4.8c24.3-3,56.5-4.3,80.8-2.4Z"/>
      <path class="st0" d="M126.5,235.4v2.4c-4.6,1.1-15.5,9.9-16.6,14.3l-19,11.9v-28.6c10.5-1.7,24.6,1.2,35.6,0Z"/>
      <path class="st0" d="M226.3,218.7c11.4,2.8,22.8,5.4,33.3,10.8,3.3,1.7,5.9-.5,4.7,5.9-14.7-2.4-30.8-11.5-45.1-14.3l7.1-2.4Z"/>
      <path class="st0" d="M41,278.3c6.8.8,15.8,14.8,16.5,20.5s-5.4,1.9-7,3.4c-7.7-5.1-10.3-15.1-9.5-23.9Z"/>
      <path class="st4" d="M102.8,218.7c-2.2.2-40,10.5-33.3,2.4s20.1-4.1,23.8-4.8l9.5,2.4Z"/>
      <path class="st0" d="M107.5,213.9l7.1,4.8c-3.9.3-8-.4-11.9,0l-9.5-2.4c4.7-.9,9.5-1.8,14.3-2.4Z"/>
      <path class="st4" d="M143.2,233l-2.4,4.8c-2.5-.5-12-.5-14.3,0v-2.4c5.6-.6,10.2-2,16.6-2.4Z"/>
      <path class="st0" d="M133.7,216.3c-2.5,4-8.1,2.1-11.9,2.4l11.9-2.4Z"/>
      <path class="st0" d="M193.1,211.5h-4.8c1.6.1,3.2-.1,4.8,0Z"/>
      <path class="st0" d="M190.7,218.7c-.8,0-1.6,0-2.4,0h2.4Z"/>
      <path class="st0" d="M176.4,218.7c-1,0-2-1.4-2.4-2.4l2.4,2.4Z"/>
      <path class="st3" d="M140.8,237.8c27.7,5,23.7,38.7,2.4,50.1,10.8-.7,17.8,4.3,21.4,14.3-18.3-3.2-36.9,14.3-29.1,32.8,3.1,7.3,18.8,10.7,14.8,14.9-.5.5-9.7,2.5-12.7,5.2-11.5,9.9-9.9,51.4-6.3,66.5-7.5.3-16.8-1-23.8,0-.3-2.2.5-5.1,0-7.2v-9.5c0-3.2,0-6.4,0-9.5v-7.2c0-5.6,0-11.1,0-16.7v-2.4c0-2.4,0-4.8,0-7.2v-62c4.6-7.7,10.1-10.7,19-12-14.4-6.7-20.7-19.8-16.6-35.7,1.1-4.4,12-13.2,16.6-14.3s11.8-.5,14.3,0Z"/>
      <path class="st4" d="M243,316.5c7.9,33.2-1,77.6,2.4,112.1-.4-.2-6.5-1.4-9.5-2.4l-2.4-109.7h9.5Z"/>
      <path class="st0" d="M238.2,275.9c-1.7,10.5,0,14.1-11.9,19.1-3.5-3.7,1.4-14.7,2.4-19.1h9.5Z"/>
      <path class="st4" d="M238.2,275.9h-9.5c1.5-6.3-2.3-12.2,7.1-16.7,1.6,3,3.8,4.7,4.3,8.9.5,4.2-1.5,5.6-1.9,7.8Z"/>
      <polygon class="st0" points="260.8 423.8 262 425 260.8 426.2 260.8 423.8"/>
      <path class="st1" d="M38.6,352.3c7.2-1.3,4.6,3.6,4.8,8.2.8,25-2.6,50.6,2.4,75.3-.7.1-2.5,2.9-4.8,2.4l-2.4-2.4c.8-27.7-1.1-55.8,0-83.5Z"/>
      <path class="st1" d="M38.6,333.2c7.8-2.6,7,17.7,0,14.3.2-4.6-.6-9.9,0-14.3Z"/>
      <path class="st0" d="M107.5,354.7c-4.6-16.4-9-39.8,0-54.9v54.9Z"/>
      <path class="st0" d="M107.5,414.3c-2-8.7,0-6.6,0-9.5v9.5Z"/>
      <path class="st0" d="M107.5,361.8c0-.3-1.4-1.3,0-2.4v2.4Z"/>
      <path class="st2" d="M181.2,173.4c.8,8.9-25.3,15-21.3,1.4,1.8-6.1,15.5-1.4,21.3-1.4Z"/>
      <path class="st0" d="M207.4,390.4c0-8.6.2-22.3,7.1-28.6-.1,9.1,1.9,22.7-7.1,28.6Z"/>
      <path id="Moon" class="st4" d="M155.6,19.3c-.4,5.7-3,24.8-20.4,19.6s-1.2.6-.7,1.1c3.7,4.5,13.9,15.1,21,6.9,8.5-9.8,9.3-19.9,1.3-28s-1.2-.2-1.2.4Z"/>
    </g>
  </g>
</svg>